<svg width="24" height="24" viewBox="0 0 24 24" fill="none" xmlns="http://www.w3.org/2000/svg">
<path fill-rule="evenodd" clip-rule="evenodd" d="M11.1 12.8996V16.9996H12.9V12.8996H17V11.0996H12.9V6.99961H11.1V11.0996H6.99997V12.8996H11.1Z" fill="#171719"/>
<path fill-rule="evenodd" clip-rule="evenodd" d="M12 3.89961C7.52646 3.89961 3.89997 7.5261 3.89997 11.9996C3.89997 16.4731 7.52646 20.0996 12 20.0996C16.4735 20.0996 20.1 16.4731 20.1 11.9996C20.1 7.5261 16.4735 3.89961 12 3.89961ZM2.09998 11.9996C2.09998 6.53199 6.53235 2.09961 12 2.09961C17.4676 2.09961 21.9 6.53199 21.9 11.9996C21.9 17.4672 17.4676 21.8996 12 21.8996C6.53235 21.8996 2.09998 17.4672 2.09998 11.9996Z" fill="#171719"/>
</svg>
