<svg width="20" height="20" viewBox="0 0 20 20" fill="current" xmlns="http://www.w3.org/2000/svg">
<mask id="mask0_32_41235" style="mask-type:alpha" maskUnits="userSpaceOnUse" x="0" y="0" width="20" height="20">
<path d="M14.1667 1.66667H16.6667C17.127 1.66667 17.5001 2.03977 17.5001 2.5V17.5C17.5001 17.9603 17.127 18.3333 16.6667 18.3333H3.33334C2.8731 18.3333 2.5 17.9603 2.5 17.5V2.5C2.5 2.03977 2.8731 1.66667 3.33334 1.66667H5.83334V0H7.50002V1.66667H12.5V0H14.1667V1.66667ZM14.1667 3.33333V5H12.5V3.33333H7.50002V5H5.83334V3.33333H4.16667V16.6667H15.8334V3.33333H14.1667ZM5.83334 6.66667H14.1667V8.33333H5.83334V6.66667ZM5.83334 10H14.1667V11.6667H5.83334V10Z" fill="current"/>
</mask>
<g mask="url(#mask0_32_41235)">
<rect width="20" height="20" fill="current"/>
</g>
</svg>
