<svg width="20" height="20" viewBox="0 0 20 20" fill="current" xmlns="http://www.w3.org/2000/svg">
<mask id="mask0_136_94456" style="mask-type:alpha" maskUnits="userSpaceOnUse" x="0" y="0" width="20" height="20">
<path fill-rule="evenodd" clip-rule="evenodd" d="M10.0002 4.3325C9.72696 3.97366 9.39476 3.67586 9.03043 3.43586C8.08925 2.81586 6.94662 2.58301 6.04183 2.58301C5.13703 2.58301 3.9944 2.81586 3.05323 3.43586C2.07834 4.07807 1.3335 5.13408 1.3335 6.66634V17.0731C1.3335 17.8735 2.30089 18.1714 2.78953 17.6344C3.59461 16.7497 4.75302 16.196 6.04183 16.196C7.4012 16.196 8.61599 16.8122 9.42351 17.7832H10.5768C11.3855 16.8108 12.6008 16.1908 13.9585 16.1908C15.2473 16.1908 16.4057 16.7444 17.2108 17.6292C17.6994 18.1662 18.6668 17.8682 18.6668 17.0678V6.66634C18.6668 5.13408 17.922 4.07807 16.9471 3.43586C16.0059 2.81586 14.8633 2.58301 13.9585 2.58301C13.0537 2.58301 11.9111 2.81586 10.9699 3.43586C10.6056 3.67586 10.2734 3.97366 10.0002 4.3325ZM3.8784 4.68849C3.27202 5.08795 2.8335 5.6986 2.8335 6.66634V15.6447C3.75668 15.0449 4.85876 14.696 6.04183 14.696C7.22503 14.696 8.32702 15.045 9.25016 15.6448V6.66634C9.25016 5.6986 8.81163 5.08795 8.20525 4.68849C7.56516 4.26683 6.72863 4.08301 6.04183 4.08301C5.35503 4.08301 4.51849 4.26683 3.8784 4.68849ZM10.7502 15.6433C11.6728 15.0422 12.7746 14.6908 13.9585 14.6908C15.1416 14.6908 16.2436 15.0397 17.1668 15.6395V6.66634C17.1668 5.6986 16.7283 5.08795 16.1219 4.68849C15.4818 4.26683 14.6453 4.08301 13.9585 4.08301C13.2717 4.08301 12.4352 4.26683 11.7951 4.68849C11.1887 5.08795 10.7502 5.6986 10.7502 6.66634V15.6433Z" fill="current"/>
</mask>
<g mask="url(#mask0_136_94456)">
<rect width="20" height="20" fill="current"/>
</g>
</svg>
