<svg width="20" height="20" viewBox="0 0 20 20" fill="current" xmlns="http://www.w3.org/2000/svg">
<mask id="mask0_32_27418" style="mask-type:alpha" maskUnits="userSpaceOnUse" x="0" y="0" width="20" height="20">
<path fill-rule="evenodd" clip-rule="evenodd" d="M10.4557 1.90423C10.1868 1.69859 9.81341 1.69859 9.5445 1.90423L2.46117 7.32085C2.2756 7.46275 2.16675 7.68301 2.16675 7.91662L2.16675 15.7748C2.16673 15.9867 2.16671 16.1884 2.1806 16.3584C2.19574 16.5437 2.23106 16.7563 2.33932 16.9688C2.49112 17.2667 2.73334 17.509 3.03127 17.6608C3.24375 17.769 3.45634 17.8043 3.64168 17.8195C3.81163 17.8334 4.01332 17.8334 4.22524 17.8333H15.7749C15.9868 17.8334 16.1885 17.8334 16.3585 17.8195C16.5438 17.8043 16.7564 17.769 16.9689 17.6608C17.2668 17.509 17.509 17.2667 17.6608 16.9688C17.7691 16.7563 17.8044 16.5437 17.8196 16.3584C17.8335 16.1885 17.8334 15.9868 17.8334 15.7748L17.8334 7.91662C17.8334 7.68301 17.7246 7.46275 17.539 7.32085L10.4557 1.90423ZM9.94946 3.48291C9.97934 3.46006 10.0208 3.46006 10.0507 3.48291L16.3007 8.26228C16.3213 8.27804 16.3334 8.30252 16.3334 8.32847V16.25C16.3334 16.2961 16.2961 16.3334 16.2501 16.3334H10.7503V11.6666H9.25032V16.3334H3.75009C3.70406 16.3334 3.66675 16.2961 3.66675 16.25V8.32847C3.66675 8.30252 3.67885 8.27804 3.69947 8.26228L9.94946 3.48291Z" fill="current"/>
</mask>
<g mask="url(#mask0_32_27418)">
<rect width="20" height="20" fill="current"/>
</g>
</svg>
