<svg width="20" height="20" viewBox="0 0 20 20" fill="current" xmlns="http://www.w3.org/2000/svg">
<mask id="mask0_32_82318" style="mask-type:alpha" maskUnits="userSpaceOnUse" x="0" y="0" width="20" height="20">
<path d="M9.99992 10.832C7.24992 10.832 4.99992 8.58203 4.99992 5.83203C4.99992 3.08203 7.24992 0.832031 9.99992 0.832031C12.7499 0.832031 14.9999 3.08203 14.9999 5.83203C14.9999 8.58203 12.7499 10.832 9.99992 10.832ZM9.99992 9.16536C11.8332 9.16536 13.3332 7.66536 13.3332 5.83203C13.3332 3.9987 11.8332 2.4987 9.99992 2.4987C8.16658 2.4987 6.66658 3.9987 6.66658 5.83203C6.66658 7.66536 8.16658 9.16536 9.99992 9.16536ZM12.1666 15.6654C12.0832 15.4154 12.0832 15.2487 12.0832 14.9987C12.0832 14.7487 12.0832 14.4987 12.1666 14.332L11.3332 13.832L12.1666 12.4154L12.9999 12.9154C13.3332 12.582 13.7499 12.332 14.1666 12.2487V11.332H15.8332V12.2487C16.2499 12.4154 16.6666 12.582 16.9999 12.9154L17.8332 12.4154L18.6666 13.832L17.8332 14.332C17.9166 14.582 17.9166 14.7487 17.9166 14.9987C17.9166 15.2487 17.9166 15.4987 17.8332 15.6654L18.6666 16.1654L17.8332 17.582L16.9999 17.082C16.6666 17.4154 16.2499 17.6654 15.8332 17.7487V18.6654H14.1666V17.7487C13.7499 17.582 13.3332 17.4154 12.9999 17.082L12.1666 17.582L11.3332 16.1654L12.1666 15.6654ZM14.9999 16.2487C15.6666 16.2487 16.2499 15.6654 16.2499 14.9987C16.2499 14.332 15.6666 13.7487 14.9999 13.7487C14.3332 13.7487 13.7499 14.332 13.7499 14.9987C13.7499 15.6654 14.3332 16.2487 14.9999 16.2487ZM7.49992 12.4987C5.16658 12.4987 3.33325 14.332 3.33325 16.6654V18.332H4.99992V16.6654C4.99992 15.2487 6.08325 14.1654 7.49992 14.1654H9.99992V12.4987H7.49992Z" fill="current"/>
<path d="M9.99992 10.832C7.24992 10.832 4.99992 8.58203 4.99992 5.83203C4.99992 3.08203 7.24992 0.832031 9.99992 0.832031C12.7499 0.832031 14.9999 3.08203 14.9999 5.83203C14.9999 8.58203 12.7499 10.832 9.99992 10.832ZM9.99992 9.16536C11.8332 9.16536 13.3332 7.66536 13.3332 5.83203C13.3332 3.9987 11.8332 2.4987 9.99992 2.4987C8.16658 2.4987 6.66658 3.9987 6.66658 5.83203C6.66658 7.66536 8.16658 9.16536 9.99992 9.16536ZM12.1666 15.6654C12.0832 15.4154 12.0832 15.2487 12.0832 14.9987C12.0832 14.7487 12.0832 14.4987 12.1666 14.332L11.3332 13.832L12.1666 12.4154L12.9999 12.9154C13.3332 12.582 13.7499 12.332 14.1666 12.2487V11.332H15.8332V12.2487C16.2499 12.4154 16.6666 12.582 16.9999 12.9154L17.8332 12.4154L18.6666 13.832L17.8332 14.332C17.9166 14.582 17.9166 14.7487 17.9166 14.9987C17.9166 15.2487 17.9166 15.4987 17.8332 15.6654L18.6666 16.1654L17.8332 17.582L16.9999 17.082C16.6666 17.4154 16.2499 17.6654 15.8332 17.7487V18.6654H14.1666V17.7487C13.7499 17.582 13.3332 17.4154 12.9999 17.082L12.1666 17.582L11.3332 16.1654L12.1666 15.6654ZM14.9999 16.2487C15.6666 16.2487 16.2499 15.6654 16.2499 14.9987C16.2499 14.332 15.6666 13.7487 14.9999 13.7487C14.3332 13.7487 13.7499 14.332 13.7499 14.9987C13.7499 15.6654 14.3332 16.2487 14.9999 16.2487ZM7.49992 12.4987C5.16658 12.4987 3.33325 14.332 3.33325 16.6654V18.332H4.99992V16.6654C4.99992 15.2487 6.08325 14.1654 7.49992 14.1654H9.99992V12.4987H7.49992Z" stroke="current"/>
</mask>
<g mask="url(#mask0_32_82318)">
<rect width="20" height="20" fill="current"/>
</g>
</svg>
