<svg width="20" height="20" viewBox="0 0 20 20" fill="current" xmlns="http://www.w3.org/2000/svg">
<mask id="mask0_1202_98563" style="mask-type:alpha" maskUnits="userSpaceOnUse" x="0" y="0" width="20" height="20">
<path d="M9.99984 1.25C15.2926 1.25 19.5832 5.54061 19.5832 10.8333C19.5832 11.1141 19.5711 11.392 19.5474 11.6667H18.292C17.8739 15.8777 14.3209 19.1667 9.99984 19.1667C5.39746 19.1667 1.6665 15.4357 1.6665 10.8333C1.6665 6.51221 4.9554 2.95925 9.1665 2.54115V1.28573C9.44117 1.26207 9.71909 1.25 9.99984 1.25ZM9.1665 4.21824C5.87791 4.62832 3.33317 7.43365 3.33317 10.8333C3.33317 14.5153 6.31794 17.5 9.99984 17.5C13.3995 17.5 16.2048 14.9552 16.6149 11.6667H9.1665V4.21824ZM10.8332 2.96V10H17.8732C17.4854 6.29331 14.5398 3.34777 10.8332 2.96Z" fill="#171719"/>
</mask>
<g mask="url(#mask0_1202_98563)">
<rect width="20" height="20" fill="current"/>
</g>
</svg>
