<svg width="20" height="20" viewBox="0 0 20 20" fill="none" xmlns="http://www.w3.org/2000/svg">
<mask id="mask0_32_27522" style="mask-type:alpha" maskUnits="userSpaceOnUse" x="0" y="0" width="20" height="20">
<path d="M12.1494 11.0075C12.5563 10.6587 12.7597 10.4843 12.8342 10.2768C12.8997 10.0947 12.8997 9.89551 12.8342 9.71339C12.7597 9.50589 12.5563 9.33152 12.1494 8.98277L9.69818 6.88173C8.9978 6.28141 8.64761 5.98124 8.35113 5.97389C8.09346 5.9675 7.84733 6.0807 7.68449 6.2805C7.49713 6.51039 7.49713 6.97162 7.49713 7.89408L7.49713 12.0962C7.49713 13.0186 7.49713 13.4798 7.68449 13.7097C7.84733 13.9095 8.09346 14.0227 8.35112 14.0163C8.64761 14.009 8.9978 13.7088 9.69818 13.1085L12.1494 11.0075Z" fill="#171719"/>
<path d="M12.1494 11.0075C12.5563 10.6587 12.7597 10.4843 12.8342 10.2768C12.8997 10.0947 12.8997 9.89551 12.8342 9.71339C12.7597 9.50589 12.5563 9.33152 12.1494 8.98277L9.69818 6.88173C8.9978 6.28141 8.64761 5.98124 8.35113 5.97389C8.09346 5.9675 7.84733 6.0807 7.68449 6.2805C7.49713 6.51039 7.49713 6.97162 7.49713 7.89408L7.49713 12.0962C7.49713 13.0186 7.49713 13.4798 7.68449 13.7097C7.84733 13.9095 8.09346 14.0227 8.35112 14.0163C8.64761 14.009 8.9978 13.7088 9.69818 13.1085L12.1494 11.0075Z" stroke="#171719"/>
</mask>
<g mask="url(#mask0_32_27522)">
<rect width="20" height="20" fill="#171719"/>
</g>
</svg>
