<svg width="20" height="20" viewBox="0 0 20 20" fill="current" xmlns="http://www.w3.org/2000/svg">
<mask id="mask0_32_27463" style="mask-type:alpha" maskUnits="userSpaceOnUse" x="0" y="0" width="20" height="20">
<path d="M16.6663 18.333H14.9997V16.6663C14.9997 15.2856 13.8804 14.1663 12.4997 14.1663H7.49967C6.11896 14.1663 4.99967 15.2856 4.99967 16.6663V18.333H3.33301V16.6663C3.33301 14.3652 5.19849 12.4997 7.49967 12.4997H12.4997C14.8008 12.4997 16.6663 14.3652 16.6663 16.6663V18.333ZM9.99967 10.833C7.23825 10.833 4.99967 8.59442 4.99967 5.83301C4.99967 3.07158 7.23825 0.833008 9.99967 0.833008C12.7611 0.833008 14.9997 3.07158 14.9997 5.83301C14.9997 8.59442 12.7611 10.833 9.99967 10.833ZM9.99967 9.16634C11.8406 9.16634 13.333 7.67396 13.333 5.83301C13.333 3.99206 11.8406 2.49967 9.99967 2.49967C8.15872 2.49967 6.66634 3.99206 6.66634 5.83301C6.66634 7.67396 8.15872 9.16634 9.99967 9.16634Z" fill="current"/>
</mask>
<g mask="url(#mask0_32_27463)">
<rect width="20" height="20" fill="current"/>
</g>
</svg>
