<svg width="20" height="20" viewBox="0 0 20 20" fill="current" xmlns="http://www.w3.org/2000/svg">
<mask id="mask0_136_94531" style="mask-type:alpha" maskUnits="userSpaceOnUse" x="0" y="0" width="20" height="20">
<g clip-path="url(#clip0_136_94531)">
<path d="M17.2611 6.7731L17.0556 7.2445C16.9052 7.58961 16.4279 7.58961 16.2775 7.2445L16.0721 6.7731C15.7058 5.93257 15.0461 5.26335 14.223 4.89724L13.5899 4.61569C13.2476 4.46345 13.2476 3.96535 13.5899 3.81311L14.1875 3.54729C15.0319 3.17177 15.7034 2.47778 16.0633 1.6087L16.2743 1.09928C16.4214 0.744249 16.9117 0.744249 17.0587 1.09928L17.2697 1.6087C17.6297 2.47778 18.3012 3.17177 19.1456 3.54729L19.7432 3.81311C20.0855 3.96535 20.0855 4.46345 19.7432 4.61569L19.1101 4.89724C18.287 5.26335 17.6273 5.93257 17.2611 6.7731ZM2.49301 2.49968H11.6665V4.16634H3.33318V15.833H16.6666V9.16634H18.3332V16.6718C18.3332 17.129 17.9538 17.4997 17.5067 17.4997H2.49301C2.03655 17.4997 1.6665 17.1289 1.6665 16.6718V3.32751C1.6665 2.87031 2.04593 2.49968 2.49301 2.49968ZM8.85145 7.01183L12.9172 9.72234C13.0704 9.82443 13.1118 10.0314 13.0096 10.1846C12.9852 10.2212 12.9538 10.2526 12.9172 10.277L8.85145 12.9875C8.69828 13.0897 8.49128 13.0483 8.38919 12.8951C8.35269 12.8403 8.33319 12.776 8.33319 12.7102V7.28918C8.33319 7.10508 8.48244 6.95585 8.66653 6.95585C8.73236 6.95585 8.7967 6.97533 8.85145 7.01183Z" fill="current"/>
</g>
</mask>
<g mask="url(#mask0_136_94531)">
<rect width="20" height="20" fill="current"/>
</g>
<defs>
<clipPath id="clip0_136_94531">
<rect width="20.0001" height="20" fill="current"/>
</clipPath>
</defs>
</svg>
