<svg viewBox="0 0 24 24" fill="currentColor" xmlns="http://www.w3.org/2000/svg">
<path fill-rule="evenodd" clip-rule="evenodd" d="M15.0004 4.09961C12.8464 4.09961 11.1004 5.8457 11.1004 7.99961C11.1004 10.1535 12.8464 11.8996 15.0004 11.8996C17.1543 11.8996 18.9004 10.1535 18.9004 7.99961C18.9004 5.8457 17.1543 4.09961 15.0004 4.09961ZM15.0003 13.5995C12.9144 13.5995 10.9852 14.1615 9.55128 15.1175C8.12362 16.0693 7.10025 17.483 7.10025 19.1662L7.10024 19.1833C7.10016 19.2408 7.10006 19.3193 7.10653 19.3933C7.17632 20.191 7.80876 20.8234 8.60645 20.8932C8.68042 20.8997 8.75892 20.8996 8.81643 20.8995L8.83359 20.8995H21.1669L21.184 20.8995C21.2415 20.8996 21.3201 20.8997 21.3941 20.8932C22.1917 20.8234 22.8242 20.191 22.894 19.3933C22.9004 19.3193 22.9003 19.2408 22.9003 19.1833L22.9003 19.1662C22.9003 17.483 21.8769 16.0693 20.4492 15.1175C19.0153 14.1615 17.0862 13.5995 15.0003 13.5995ZM5.30033 19.1662C5.30033 17.5549 5.9388 16.1834 6.86783 15.1006C5.3844 15.1236 4.00638 15.533 2.96521 16.2271C1.89948 16.9376 1.09998 18.0179 1.09998 19.3329C1.09998 20.1981 1.80129 20.8994 2.6664 20.8994H5.71998C5.49832 20.4927 5.35597 20.0361 5.31346 19.5502C5.29899 19.3848 5.30003 19.2157 5.30029 19.174L5.30033 19.1662ZM3.60009 9.99951C3.60009 8.39789 4.89846 7.09951 6.50009 7.09951C8.10172 7.09951 9.40009 8.39789 9.40009 9.99951C9.40009 11.6011 8.10172 12.8995 6.50009 12.8995C4.89846 12.8995 3.60009 11.6011 3.60009 9.99951Z" fill="currentColor"/>
</svg>
