<svg width="24" height="24" viewBox="0 0 24 24" fill="none" xmlns="http://www.w3.org/2000/svg">
<path fill-rule="evenodd" clip-rule="evenodd" d="M9.9996 2.10004C5.63656 2.10004 2.09961 5.63699 2.09961 10C2.09961 14.3631 5.63656 17.9 9.9996 17.9C11.8569 17.9 13.5645 17.2591 14.9133 16.1863L19.8633 21.1364C20.2148 21.4879 20.7847 21.4879 21.1361 21.1364C21.4876 20.7849 21.4876 20.2151 21.1361 19.8636L16.1861 14.9135C17.2587 13.5648 17.8996 11.8572 17.8996 10C17.8996 5.63699 14.3626 2.10004 9.9996 2.10004ZM3.89961 10C3.89961 6.6311 6.63067 3.90004 9.9996 3.90004C13.3685 3.90004 16.0996 6.6311 16.0996 10C16.0996 13.369 13.3685 16.1 9.9996 16.1C6.63067 16.1 3.89961 13.369 3.89961 10Z" fill="#171719"/>
</svg>
