<svg viewBox="0 0 24 24" fill="currentColor" xmlns="http://www.w3.org/2000/svg">
<path d="M16.0001 4C16.5524 4 17.0001 4.44772 17.0001 5V9.2L22.2134 5.55071C22.4396 5.39235 22.7514 5.44737 22.9097 5.6736C22.9685 5.75764 23.0001 5.85774 23.0001 5.96033V18.0397C23.0001 18.3158 22.7762 18.5397 22.5001 18.5397C22.3975 18.5397 22.2974 18.5081 22.2134 18.4493L17.0001 14.8V19C17.0001 19.5523 16.5524 20 16.0001 20H2.00012C1.44784 20 1.00012 19.5523 1.00012 19V5C1.00012 4.44772 1.44784 4 2.00012 4H16.0001ZM15.0001 6H3.00012V18H15.0001V6ZM9.00012 8L13.0001 12H10.0001V16H8.00012V12H5.00012L9.00012 8ZM21.0001 8.84131L17.0001 11.641V12.359L21.0001 15.1587V8.84131Z" fill="currentColor"/>
</svg>
