<svg width="20" height="20" viewBox="0 0 20 20" fill="none" xmlns="http://www.w3.org/2000/svg">
<mask id="mask0_134_40221" style="mask-type:alpha" maskUnits="userSpaceOnUse" x="0" y="0" width="20" height="20">
<path d="M11.0123 12.1523C10.6636 12.5591 10.4892 12.7626 10.2817 12.8371C10.0996 12.9025 9.90039 12.9025 9.71827 12.8371C9.51077 12.7626 9.3364 12.5591 8.98766 12.1523L6.88662 9.70106C6.28629 9.00067 5.98613 8.65048 5.97877 8.354C5.97238 8.09633 6.08558 7.8502 6.28538 7.68737C6.51527 7.5 6.9765 7.5 7.89896 7.5L12.101 7.5C13.0235 7.5 13.4847 7.5 13.7146 7.68737C13.9144 7.8502 14.0276 8.09633 14.0212 8.354C14.0139 8.65048 13.7137 9.00067 13.1134 9.70106L11.0123 12.1523Z" fill="#171719"/>
<path d="M11.0123 12.1523C10.6636 12.5591 10.4892 12.7626 10.2817 12.8371C10.0996 12.9025 9.90039 12.9025 9.71827 12.8371C9.51077 12.7626 9.3364 12.5591 8.98766 12.1523L6.88662 9.70106C6.28629 9.00067 5.98613 8.65048 5.97877 8.354C5.97238 8.09633 6.08558 7.8502 6.28538 7.68737C6.51527 7.5 6.9765 7.5 7.89896 7.5L12.101 7.5C13.0235 7.5 13.4847 7.5 13.7146 7.68737C13.9144 7.8502 14.0276 8.09633 14.0212 8.354C14.0139 8.65048 13.7137 9.00067 13.1134 9.70106L11.0123 12.1523Z" stroke="#171719"/>
</mask>
<g mask="url(#mask0_134_40221)">
<rect width="20" height="20" fill="#171719"/>
</g>
</svg>
