<svg width="24" height="24" viewBox="0 0 24 24" fill="current" xmlns="http://www.w3.org/2000/svg">
<path fill-rule="evenodd" clip-rule="evenodd" d="M20.9001 15.001L20.9001 18.4313C20.9002 18.6856 20.9002 18.9277 20.8835 19.1317C20.8654 19.3541 20.823 19.6092 20.6931 19.8641C20.5109 20.2217 20.2202 20.5123 19.8627 20.6945C19.6077 20.8244 19.3526 20.8668 19.1302 20.885C18.9263 20.9016 18.6843 20.9016 18.43 20.9016H5.57035C5.31605 20.9016 5.07397 20.9016 4.87002 20.885C4.64761 20.8668 4.3925 20.8244 4.13752 20.6945C3.78001 20.5123 3.48935 20.2217 3.30719 19.8641C3.17727 19.6092 3.13489 19.3541 3.11671 19.1317C3.10005 18.9277 3.10007 18.6856 3.1001 18.4313V15.001H4.90011V19.0013C4.90011 19.0565 4.94488 19.1013 5.00011 19.1013H19.0001C19.0554 19.1013 19.1001 19.0565 19.1001 19.0013V15.001H20.9001Z" fill="current"/>
<path d="M16.9055 8.61839C16.5648 8.98035 15.9952 8.99761 15.6333 8.65694L12.9001 6.08454V15.5018C12.9001 15.9988 12.4972 16.4018 12.0001 16.4018C11.503 16.4018 11.1001 15.9988 11.1001 15.5018V6.08454L8.36693 8.65694C8.00497 8.99761 7.43539 8.98035 7.09472 8.61839C6.75406 8.25643 6.77132 7.68685 7.13327 7.34618L11.3833 3.34618C11.7298 3.02002 12.2704 3.02002 12.6169 3.34618L16.8669 7.34618C17.2289 7.68685 17.2461 8.25643 16.9055 8.61839Z" fill="current"/>
<path fill-rule="evenodd" clip-rule="evenodd" d="M20.9001 15.001L20.9001 18.4313C20.9002 18.6856 20.9002 18.9277 20.8835 19.1317C20.8654 19.3541 20.823 19.6092 20.6931 19.8641C20.5109 20.2217 20.2202 20.5123 19.8627 20.6945C19.6077 20.8244 19.3526 20.8668 19.1302 20.885C18.9263 20.9016 18.6843 20.9016 18.43 20.9016H5.57035C5.31605 20.9016 5.07397 20.9016 4.87002 20.885C4.64761 20.8668 4.3925 20.8244 4.13752 20.6945C3.78001 20.5123 3.48935 20.2217 3.30719 19.8641C3.17727 19.6092 3.13489 19.3541 3.11671 19.1317C3.10005 18.9277 3.10007 18.6856 3.1001 18.4313V15.001H4.90011V19.0013C4.90011 19.0565 4.94488 19.1013 5.00011 19.1013H19.0001C19.0554 19.1013 19.1001 19.0565 19.1001 19.0013V15.001H20.9001Z" stroke="current"/>
<path d="M16.9055 8.61839C16.5648 8.98035 15.9952 8.99761 15.6333 8.65694L12.9001 6.08454V15.5018C12.9001 15.9988 12.4972 16.4018 12.0001 16.4018C11.503 16.4018 11.1001 15.9988 11.1001 15.5018V6.08454L8.36693 8.65694C8.00497 8.99761 7.43539 8.98035 7.09472 8.61839C6.75406 8.25643 6.77132 7.68685 7.13327 7.34618L11.3833 3.34618C11.7298 3.02002 12.2704 3.02002 12.6169 3.34618L16.8669 7.34618C17.2289 7.68685 17.2461 8.25643 16.9055 8.61839Z" stroke="current"/>
</svg>
