<svg viewBox="0 0 24 24" fill="currentColor" xmlns="http://www.w3.org/2000/svg">
<path d="M21.0001 15V18H24.0001V20H21.0001V23H19.0001V20H16.0001V18H19.0001V15H21.0001ZM21.0083 3C21.5561 3 22.0001 3.44495 22.0001 3.9934V13H20.0001V5H4.00006V18.999L14.0001 9L17.0001 12V14.829L14.0001 11.8284L6.82706 19H14.0001V21H2.99186C2.44411 21 2.00006 20.5551 2.00006 20.0066V3.9934C2.00006 3.44476 2.45537 3 2.99186 3H21.0083ZM8.00006 7C9.10463 7 10.0001 7.89543 10.0001 9C10.0001 10.1046 9.10463 11 8.00006 11C6.89549 11 6.00006 10.1046 6.00006 9C6.00006 7.89543 6.89549 7 8.00006 7Z" fill="currentColor"/>
</svg>
