<svg viewBox="0 0 24 24" fill="currentColor" xmlns="http://www.w3.org/2000/svg">
<path d="M3.40012 4.59961C2.62692 4.59961 2.00012 5.22641 2.00012 5.99961C2.00012 6.77281 2.62692 7.39961 3.40012 7.39961C4.17332 7.39961 4.80012 6.77281 4.80012 5.99961C4.80012 5.22641 4.17332 4.59961 3.40012 4.59961Z" fill="currentColor"/>
<path d="M3.40012 16.5996C2.62692 16.5996 2.00012 17.2264 2.00012 17.9996C2.00012 18.7728 2.62692 19.3996 3.40012 19.3996C4.17332 19.3996 4.80012 18.7728 4.80012 17.9996C4.80012 17.2264 4.17332 16.5996 3.40012 16.5996Z" fill="currentColor"/>
<path d="M2.00012 11.9996C2.00012 11.2264 2.62692 10.5996 3.40012 10.5996C4.17332 10.5996 4.80012 11.2264 4.80012 11.9996C4.80012 12.7728 4.17332 13.3996 3.40012 13.3996C2.62692 13.3996 2.00012 12.7728 2.00012 11.9996Z" fill="currentColor"/>
<path d="M8.00012 5.09951C7.50306 5.09951 7.10012 5.50246 7.10012 5.99951C7.10012 6.49657 7.50306 6.89951 8.00012 6.89951H21.0001C21.4972 6.89951 21.9001 6.49657 21.9001 5.99951C21.9001 5.50246 21.4972 5.09951 21.0001 5.09951H8.00012Z" fill="currentColor"/>
<path d="M7.10012 17.9995C7.10012 17.5025 7.50306 17.0995 8.00012 17.0995H21.0001C21.4972 17.0995 21.9001 17.5025 21.9001 17.9995C21.9001 18.4966 21.4972 18.8995 21.0001 18.8995H8.00012C7.50306 18.8995 7.10012 18.4966 7.10012 17.9995Z" fill="currentColor"/>
<path d="M8.00012 11.0995C7.50306 11.0995 7.10012 11.5025 7.10012 11.9995C7.10012 12.4966 7.50306 12.8995 8.00012 12.8995H21.0001C21.4972 12.8995 21.9001 12.4966 21.9001 11.9995C21.9001 11.5025 21.4972 11.0995 21.0001 11.0995H8.00012Z" fill="currentColor"/>
</svg>
