<svg viewBox="0 0 24 24" fill="currentColor" xmlns="http://www.w3.org/2000/svg">
<path d="M15.2417 4.51139L8.5045 11.2486L7.79738 13.3699L6.75642 14.4109L9.58486 17.2393L10.6258 16.1984L12.7471 15.4912L19.4843 8.75403L15.2417 4.51139ZM21.6056 8.04692C21.9962 8.43745 21.9962 9.07061 21.6056 9.46114L13.8275 17.2393L11.7061 17.9464L10.2919 19.3606C9.90144 19.7512 9.26828 19.7512 8.87775 19.3606L4.6351 15.118C4.24458 14.7275 4.24458 14.0943 4.6351 13.7038L6.04932 12.2896L6.75642 10.1682L14.5346 2.39007C14.9251 1.99954 15.5583 1.99954 15.9488 2.39007L21.6056 8.04692ZM15.2417 7.33982L16.6559 8.75403L11.7061 13.7038L10.2919 12.2896L15.2417 7.33982ZM4.28155 16.8858L7.10998 19.7142L5.69577 21.1284L1.45312 19.7142L4.28155 16.8858Z" fill="currentColor"/>
</svg>
