<svg width="19" height="18" viewBox="0 0 19 18" fill="current" xmlns="http://www.w3.org/2000/svg">
<path d="M10.3112 10.937C9.99733 11.3032 9.8404 11.4863 9.65365 11.5534C9.48974 11.6123 9.31045 11.6123 9.14654 11.5534C8.95979 11.4863 8.80286 11.3032 8.48899 10.937L6.59805 8.73095C6.05776 8.10061 5.78761 7.78543 5.78099 7.5186C5.77524 7.2867 5.87712 7.06518 6.05694 6.91863C6.26384 6.75 6.67895 6.75 7.50916 6.75L11.291 6.75C12.1212 6.75 12.5363 6.75 12.7432 6.91863C12.9231 7.06518 13.0249 7.2867 13.0192 7.5186C13.0126 7.78543 12.7424 8.10061 12.2021 8.73095L10.3112 10.937Z" fill="current"/>
</svg>
