<svg width="19" height="18" viewBox="0 0 19 18" fill="fill" xmlns="http://www.w3.org/2000/svg">
<mask id="mask0_791_128034" style="mask-type:alpha" maskUnits="userSpaceOnUse" x="0" y="0" width="19" height="18">
<path d="M10.3107 7.06286C9.99685 6.69668 9.83991 6.51359 9.65316 6.4465C9.48925 6.38762 9.30996 6.38762 9.14605 6.4465C8.9593 6.51359 8.80237 6.69668 8.4885 7.06286L6.59757 9.26895C6.05727 9.89929 5.78712 10.2145 5.7805 10.4813C5.77475 10.7132 5.87663 10.9347 6.05645 11.0813C6.26336 11.2499 6.67846 11.2499 7.50867 11.2499H11.2905C12.1208 11.2499 12.5359 11.2499 12.7428 11.0813C12.9226 10.9347 13.0245 10.7132 13.0187 10.4813C13.0121 10.2145 12.7419 9.89929 12.2017 9.26895L10.3107 7.06286Z" fill="fill"/>
</mask>
<g mask="url(#mask0_791_128034)">
<rect x="0.399902" width="18" height="18" fill="fill"/>
</g>
</svg>
