<svg viewBox="0 0 24 24" fill="currentColor" xmlns="http://www.w3.org/2000/svg">
<path d="M14.5793 13.2089C15.0675 12.7904 15.3116 12.5812 15.4011 12.3322C15.4796 12.1136 15.4796 11.8746 15.4011 11.656C15.3116 11.407 15.0675 11.1978 14.5793 10.7793L11.6378 8.25806C10.7974 7.53766 10.3771 7.17747 10.0213 7.16864C9.71215 7.16097 9.41679 7.29682 9.22139 7.53657C8.99655 7.81244 8.99655 8.36592 8.99655 9.47287L8.99655 14.5154C8.99655 15.6223 8.99655 16.1758 9.22139 16.4517C9.41679 16.6914 9.71214 16.8273 10.0213 16.8196C10.3771 16.8108 10.7974 16.4506 11.6378 15.7302L14.5793 13.2089Z" fill="currentColor"/>
</svg>
