<svg width="24" height="24" viewBox="0 0 24 24" fill="none" xmlns="http://www.w3.org/2000/svg">
<mask id="mask0_45_16154" style="mask-type:alpha" maskUnits="userSpaceOnUse" x="0" y="0" width="24" height="24">
<path d="M13.2147 9.4178C12.7962 8.92956 12.5869 8.68544 12.3379 8.59599C12.1194 8.51748 11.8803 8.51748 11.6618 8.59599C11.4128 8.68544 11.2035 8.92956 10.785 9.4178L8.26379 12.3593C7.5434 13.1997 7.18321 13.6199 7.17438 13.9757C7.16671 14.2849 7.30255 14.5803 7.54231 14.7757C7.81818 15.0005 8.37166 15.0005 9.47861 15.0005H14.5211C15.628 15.0005 16.1815 15.0005 16.4574 14.7757C16.6972 14.5803 16.833 14.2849 16.8253 13.9757C16.8165 13.6199 16.4563 13.1997 15.7359 12.3593L13.2147 9.4178Z" fill="#171719"/>
</mask>
<g mask="url(#mask0_45_16154)">
<rect width="24" height="24" fill="#E52222"/>
</g>
</svg>
