<svg width="21" height="20" viewBox="0 0 21 20" fill="none" xmlns="http://www.w3.org/2000/svg">
<mask id="mask0_140_65239" style="mask-type:alpha" maskUnits="userSpaceOnUse" x="0" y="0" width="21" height="20">
<path d="M10.4998 7.49967L7.16733 7.49967L7.1665 17.4997H5.49983L5.49983 7.49967L2.1665 7.49967L6.33317 3.33301L10.4998 7.49967ZM18.8332 14.1663L14.6665 18.333L10.4998 14.1663H13.8332L13.8332 4.16634H15.4998L15.4998 14.1663L18.8332 14.1663Z" fill="#171719"/>
<path d="M10.4998 7.49967L7.16733 7.49967L7.1665 17.4997H5.49983L5.49983 7.49967L2.1665 7.49967L6.33317 3.33301L10.4998 7.49967ZM18.8332 14.1663L14.6665 18.333L10.4998 14.1663H13.8332L13.8332 4.16634H15.4998L15.4998 14.1663L18.8332 14.1663Z" stroke="#171719"/>
</mask>
<g mask="url(#mask0_140_65239)">
<rect x="0.5" width="20" height="20" fill="#171719"/>
</g>
</svg>
