<svg viewBox="0 0 24 24" fill="currentColor" xmlns="http://www.w3.org/2000/svg">
<path fill-rule="evenodd" clip-rule="evenodd" d="M3.52161 12C5.13463 8.96589 8.32792 6.89997 12.0037 6.89997C15.6796 6.89997 18.8729 8.96589 20.4859 12C18.8729 15.034 15.6796 17.0999 12.0037 17.0999C8.32792 17.0999 5.13463 15.034 3.52161 12ZM22.3038 12.3918C22.4217 12.1438 22.4217 11.8561 22.3038 11.6081C20.4729 7.75996 16.5489 5.09998 12.0037 5.09998C7.45853 5.09998 3.53459 7.75996 1.7037 11.6081C1.58575 11.8561 1.58575 12.1438 1.7037 12.3918C3.53459 16.2399 7.45853 18.8999 12.0037 18.8999C16.5489 18.8999 20.4729 16.2399 22.3038 12.3918ZM9.90374 12C9.90374 10.8402 10.8439 9.89998 12.0037 9.89998C13.1635 9.89998 14.1037 10.8402 14.1037 12C14.1037 13.1598 13.1635 14.1 12.0037 14.1C10.8439 14.1 9.90374 13.1598 9.90374 12ZM12.0037 8.09998C9.84983 8.09998 8.10374 9.84607 8.10374 12C8.10374 14.1539 9.84983 15.9 12.0037 15.9C14.1576 15.9 15.9037 14.1539 15.9037 12C15.9037 9.84607 14.1576 8.09998 12.0037 8.09998Z" fill="currentColor"/>
</svg>
